<svg width="76" height="68" viewBox="0 0 76 68" fill="none" xmlns="http://www.w3.org/2000/svg">
<circle cx="34" cy="34" r="34" fill="#FCE5CD"/>
<g clip-path="url(#clip0_86_2213)">
<path d="M35.8826 27.1939C36.502 27.6894 37.2452 27.9784 38.0711 27.9784C38.9795 27.9784 39.8053 27.6481 40.4247 27.07L40.6312 26.8635C40.6312 26.8635 40.6312 26.8222 40.6725 26.8222C41.2506 26.2028 41.5809 25.377 41.5809 24.4686C41.5809 22.5691 40.0118 21 38.1123 21C36.2129 21 34.6438 22.5691 34.6438 24.4686C34.6025 25.5835 35.098 26.5333 35.8826 27.1939ZM38.0711 22.8582C38.9795 22.8582 39.7228 23.6015 39.7228 24.5099C39.7228 25.4183 38.9795 26.1616 38.0711 26.1616C37.1626 26.1616 36.4193 25.4183 36.4193 24.5099C36.4193 23.6015 37.1626 22.8582 38.0711 22.8582Z" fill="#0C0D5B"/>
<path d="M43.5628 26.5332C42.6544 26.5332 41.8698 26.8635 41.2504 27.4416L40.9614 27.7307C40.4246 28.3501 40.0942 29.176 40.0942 30.0431C40.0942 31.0341 40.5072 31.9425 41.2092 32.6032L41.2504 32.6445C41.8698 33.1813 42.6957 33.5117 43.5628 33.5117C45.4623 33.5117 47.0314 31.9425 47.0314 30.0431C47.0314 28.1023 45.5036 26.5332 43.5628 26.5332ZM43.5628 31.6535C42.6544 31.6535 41.9111 30.9102 41.9111 30.0018C41.9111 29.0933 42.6544 28.3501 43.5628 28.3501C44.4713 28.3501 45.2145 29.0933 45.2145 30.0018C45.2558 30.9102 44.4713 31.6535 43.5628 31.6535Z" fill="#0C0D5B"/>
<path d="M37.1624 36.1547L37.8231 35.6591L40.9613 33.4293C40.7548 33.2642 40.5484 33.0577 40.3419 32.8513L36.9973 35.2462L36.956 35.2875L31.3814 39.2928L23.2053 45.1977L29.1102 37.1456L33.2395 31.5298L35.7171 28.144C35.4693 27.9788 35.2628 27.8136 35.0976 27.6485L32.8678 30.6627L32.3723 31.3234L29.0689 27.9376C28.4908 27.3595 27.5824 27.3182 27.0043 27.8963L23.453 31.1172L24.1137 31.7779L26.7564 29.4655C26.9216 29.3004 27.1693 29.3416 27.3345 29.5068C27.4997 29.672 27.4584 29.9197 27.2932 30.0849L24.6918 32.356L25.5176 33.1819L28.2016 30.8282C28.3667 30.663 28.6145 30.7043 28.7797 30.8695C28.9448 31.0347 28.9035 31.2824 28.7384 31.4476L26.1369 33.76L26.9628 34.5858L29.688 32.1909C29.8531 32.0257 30.1009 32.067 30.2661 32.2322C30.4312 32.3973 30.3899 32.6451 30.2248 32.8102L27.582 35.1639L28.7382 36.2788L28.2427 36.9395L21.0164 46.8085C20.8926 46.9737 20.9339 47.2214 21.0577 47.3453C21.1403 47.4279 21.2229 47.4692 21.3468 47.4692C21.4294 47.4692 21.512 47.4279 21.5946 47.3866L31.5872 40.1603L32.2892 39.6648L33.3215 40.6558L35.7991 38.5086C35.9642 38.3434 36.212 38.3847 36.3772 38.5499C36.5423 38.7151 36.501 38.9628 36.3359 39.128L33.8583 41.2752L34.6842 42.1011L37.1617 39.9126C37.3269 39.7474 37.5746 39.7887 37.7398 39.9539C37.905 40.119 37.8637 40.3668 37.6985 40.532L35.2622 42.6792L36.0881 43.505L38.6069 41.2752C38.7721 41.1101 39.0199 41.1514 39.185 41.3165C39.3502 41.4817 39.3089 41.7708 39.1437 41.8946L36.6662 44.0831L37.7398 45.1154L40.7953 42.0599C41.3734 41.4818 41.3734 40.5321 40.7953 39.9127L37.1624 36.1547Z" fill="#0C0D5B"/>
<path d="M31.7529 36.1958C31.7529 36.5261 32.0007 36.7739 32.331 36.7739C32.6614 36.7739 32.9091 36.5261 32.9091 36.1958C32.9091 35.8654 32.6614 35.6177 32.331 35.6177C32.0007 35.6177 31.7529 35.8654 31.7529 36.1958Z" fill="#0C0D5B"/>
</g>
<path d="M53.9121 61.1259C48.5981 62.756 42.9428 62.9021 37.5571 61.5532L37.6116 61.35C42.9591 62.6886 48.5741 62.5433 53.8503 60.9247C59.286 59.2572 64.1425 56.0935 67.8645 51.7954C71.5865 47.4974 74.0236 42.2385 74.8971 36.6203C75.7705 31.0022 75.0451 25.2516 72.8037 20.0264C70.5623 14.8012 66.8955 10.3123 62.2227 7.07327C57.5499 3.83422 52.0598 1.97577 46.3803 1.71049C40.7009 1.44521 35.0614 2.78382 30.107 5.57321C25.2979 8.28077 21.3228 12.2491 18.6074 17.0465L18.4225 16.9458C21.1569 12.1138 25.1603 8.11678 30.0038 5.38983C34.9926 2.58107 40.6712 1.23316 46.3901 1.50028C52.1091 1.7674 57.6373 3.63877 62.3426 6.90032C67.0479 10.1619 70.7402 14.6819 72.9971 19.9434C75.2541 25.2049 75.9846 30.9955 75.105 36.6527C74.2255 42.3098 71.7715 47.6053 68.0236 51.9332C64.2758 56.2611 59.3855 59.4468 53.9121 61.1259Z" stroke="#43436E"/>
<defs>
<clipPath id="clip0_86_2213">
<rect width="27.9661" height="30" fill="white" transform="translate(20 19)"/>
</clipPath>
</defs>
</svg>
