<svg width="76" height="68" viewBox="0 0 76 68" fill="none" xmlns="http://www.w3.org/2000/svg">
<circle cx="34" cy="34" r="34" fill="#E4D6F0"/>
<path d="M47.795 23.9948C47.6585 24.1317 47.4793 24.1999 47.3001 24.1999C47.1209 24.1999 46.9417 24.1317 46.8052 23.9948L46.2802 23.4698L39.6 30.1499L37.85 28.3999L44.5302 21.7198L44.0052 21.1948C43.7318 20.9215 43.7318 20.4784 44.0052 20.205C44.2782 19.9317 44.722 19.9317 44.995 20.205L47.795 23.005C48.0683 23.2784 48.0683 23.7215 47.795 23.9948ZM35.1949 27.205C34.9219 26.9317 34.4781 26.9317 34.2051 27.205C33.9317 27.4784 33.9317 27.9215 34.2051 28.1948L35.0801 29.0698L23.9101 40.2398C23.6473 40.5026 23.4999 40.8586 23.4999 41.2299V43.5102L20.205 46.8051C19.9317 47.0784 19.9317 47.5215 20.205 47.7949C20.3415 47.9317 20.5207 48 20.6999 48C20.8791 48 21.0583 47.9317 21.1948 47.7949L24.5118 44.4779H26.77C27.1414 44.4779 27.4973 44.3306 27.7598 44.0677L29.1189 42.7087L27.9324 41.5222C27.6856 41.2754 27.6251 40.8782 27.8284 40.595C28.0874 40.2342 28.5942 40.2041 28.8945 40.5051L30.1087 41.7192L30.8689 40.959L29.6824 39.7725C29.4356 39.5258 29.3751 39.1285 29.5784 38.8454C29.8374 38.4845 30.3442 38.4544 30.6445 38.7554L31.8587 39.9696L32.6189 39.2094L32.4547 39.0452L31.7547 38.3452L31.432 38.0225C31.1853 37.7758 31.1247 37.3785 31.3281 37.0954C31.5871 36.7345 32.0939 36.7044 32.3942 37.0054L33.6083 38.2196L34.3686 37.4594L33.182 36.2729C32.9353 36.0261 32.8747 35.6289 33.0781 35.3457C33.3371 34.9849 33.8439 34.9548 34.1442 35.2558L35.3584 36.4699L36.1186 35.7097L34.9321 34.5232C34.6853 34.2765 34.6248 33.8792 34.8281 33.5961C35.0871 33.2352 35.5939 33.2051 35.8942 33.5061L37.1084 34.7203L38.9186 32.9101L39.8044 33.7959C39.9416 33.9317 40.1208 34 40.3 34C40.4792 34 40.6584 33.9317 40.7949 33.7949C41.0683 33.5215 41.0683 33.0784 40.7949 32.8051L35.1949 27.205Z" fill="black"/>
<path d="M53.9121 61.1259C48.5981 62.756 42.9428 62.9021 37.5571 61.5532L37.6116 61.35C42.9591 62.6886 48.5741 62.5433 53.8503 60.9247C59.286 59.2572 64.1425 56.0935 67.8645 51.7954C71.5865 47.4974 74.0236 42.2385 74.8971 36.6203C75.7705 31.0022 75.0451 25.2516 72.8037 20.0264C70.5623 14.8012 66.8955 10.3123 62.2227 7.07327C57.5499 3.83422 52.0598 1.97577 46.3803 1.71049C40.7009 1.44521 35.0614 2.78382 30.107 5.57321C25.2979 8.28077 21.3228 12.2491 18.6074 17.0465L18.4225 16.9458C21.1569 12.1138 25.1603 8.11678 30.0038 5.38983C34.9926 2.58107 40.6712 1.23316 46.3901 1.50028C52.1091 1.7674 57.6373 3.63877 62.3426 6.90032C67.0479 10.1619 70.7402 14.6819 72.9971 19.9434C75.2541 25.2049 75.9846 30.9955 75.105 36.6527C74.2255 42.3098 71.7715 47.6053 68.0236 51.9332C64.2758 56.2611 59.3855 59.4468 53.9121 61.1259Z" stroke="#43436E"/>
</svg>
