<svg width="76" height="68" viewBox="0 0 76 68" fill="none" xmlns="http://www.w3.org/2000/svg">
<circle cx="34" cy="34" r="34" fill="#FDB2AD"/>
<path d="M53.9121 61.1259C48.5981 62.756 42.9428 62.9021 37.5571 61.5532L37.6116 61.35C42.9591 62.6886 48.5741 62.5433 53.8503 60.9247C59.286 59.2572 64.1425 56.0935 67.8645 51.7954C71.5865 47.4974 74.0236 42.2385 74.8971 36.6203C75.7705 31.0022 75.0451 25.2516 72.8037 20.0264C70.5623 14.8012 66.8955 10.3123 62.2227 7.07327C57.5499 3.83422 52.0598 1.97577 46.3803 1.71049C40.7009 1.44521 35.0614 2.78382 30.107 5.57321C25.2979 8.28077 21.3228 12.2491 18.6074 17.0465L18.4225 16.9458C21.1569 12.1138 25.1603 8.11678 30.0038 5.38983C34.9926 2.58107 40.6712 1.23316 46.3901 1.50028C52.1091 1.7674 57.6373 3.63877 62.3426 6.90032C67.0479 10.1619 70.7402 14.6819 72.9971 19.9434C75.2541 25.2049 75.9846 30.9955 75.105 36.6527C74.2255 42.3098 71.7715 47.6053 68.0236 51.9332C64.2758 56.2611 59.3855 59.4468 53.9121 61.1259Z" stroke="#43436E"/>
<g clip-path="url(#clip0_86_2183)">
<path fill-rule="evenodd" clip-rule="evenodd" d="M37.9815 37.8506C38.6494 37.0543 39.4026 36.3168 40.2372 35.6522C40.8479 35.1659 41.5022 34.7189 42.1987 34.3169C43.967 33.2959 45.8508 32.6548 47.756 32.3681C50.5247 31.9513 53.338 32.2833 55.9052 33.2858C55.2041 37.8847 52.4971 42.1356 48.159 44.6404C43.8208 47.145 38.7858 47.3637 34.4526 45.6713C30.1193 47.3637 25.0843 47.145 20.7461 44.6404C16.4079 42.1356 13.701 37.8847 13 33.2858C15.567 32.2833 18.3804 31.9513 21.1492 32.3681C23.0542 32.6548 24.9382 33.2959 26.7065 34.3169C27.4028 34.7189 28.0573 35.1659 28.668 35.6522C29.5026 36.3168 30.2558 37.0543 30.9236 37.8506C30.9162 38.0043 30.9125 38.1592 30.9125 38.3147C30.9125 39.665 31.1972 40.949 31.7098 42.1104H31.7918C31.3764 41.0893 31.1475 39.9728 31.1475 38.8034C31.1475 38.6581 31.1511 38.5137 31.1581 38.3702C31.2614 36.2441 32.1213 34.3156 33.4741 32.848C33.7766 32.5197 34.1038 32.2147 34.4526 31.9356C34.8014 32.2147 35.1286 32.5197 35.4311 32.848C36.7837 34.3156 37.6438 36.2441 37.7472 38.3702C37.7542 38.5137 37.7576 38.6581 37.7576 38.8034C37.7576 39.9728 37.5288 41.0893 37.1135 42.1104H37.1955C37.708 40.949 37.9928 39.665 37.9928 38.3147C37.9928 38.1592 37.989 38.0043 37.9815 37.8506ZM30.9236 37.8506C30.2558 37.0543 29.5026 36.2316 28.668 35.5672C28.0573 35.0808 27.4028 34.5487 26.7065 34.1466C24.9382 33.1256 23.0542 32.144 21.1492 31.8573C20.7325 29.0885 21.0644 26.7859 22.0669 24.2189C24.7913 24.634 27.3937 25.7534 29.5832 27.4987C31.0813 28.6929 32.3862 30.1802 33.4045 31.9356C31.9556 33.5076 31.0345 35.5735 30.9236 37.8506ZM33.4045 31.9356C32.3862 30.1802 31.0813 28.3735 29.5832 27.1793C30.6067 24.5732 32.3008 22.6219 34.4526 20.9001C36.6043 22.6219 38.2985 24.5732 39.322 27.1793C37.8239 28.3735 36.5191 30.1802 35.5007 31.9356C35.1767 31.5839 34.8263 31.2572 34.4526 30.9581C34.0789 31.2572 33.7285 31.5839 33.4045 31.9356ZM35.5007 31.9356C36.5191 30.1802 37.8239 28.6929 39.322 27.4987C41.5114 25.7534 44.1138 24.634 46.8383 24.2189C47.8409 26.7859 48.1726 29.0885 47.756 31.8573C45.8508 32.144 43.967 33.1256 42.1987 34.1466C41.5022 34.5487 40.8479 35.0808 40.2372 35.5672C39.4026 36.2316 38.6494 37.0543 37.9815 37.8506C37.8708 35.5735 36.9497 33.5076 35.5007 31.9356ZM49.3872 33.0653C49.3872 33.0653 51.3281 33.0653 53.2239 34.4195C51.3733 40.4682 45.6858 43.8987 41.6684 45.5689C51.0574 43.8535 53.856 37.2182 54.9845 33.8325C52.6373 32.8077 49.3872 33.0653 49.3872 33.0653ZM34.4526 32.6388V34.0716C34.4526 34.0716 38.0496 38.4426 35.2763 43.8709C37.6799 40.7249 37.2902 37.1912 36.3395 34.9967C35.3886 32.8023 34.4526 32.6388 34.4526 32.6388ZM14.7862 37.1031C14.7862 37.1031 14.345 35.7165 14.9412 34.5609C20.7375 33.7288 24.3706 34.9075 30.0628 37.9119C24.7935 32.7582 18.0219 32.4808 13.7232 33.8325C14.0235 36.1085 14.7862 37.1031 14.7862 37.1031ZM21.7659 27.1652L22.9446 25.9635C22.9446 25.9635 26.2033 26.287 32.1429 31.1404C29.5082 27.3963 25.0245 25.0853 22.3667 24.9003C21.997 25.5359 21.7659 27.1652 21.7659 27.1652ZM34.4526 23.2594C34.4526 23.2594 36.4184 23.9759 38.5446 26.7723C36.9269 23.1901 34.4526 21.7572 34.4526 21.7572V23.2594ZM41.6684 26.8417L45.9865 25.9403C45.9865 25.9403 46.7954 28.2284 46.5875 31.1404C46.6567 30.863 47.3731 26.8186 46.5181 24.9003C44.0682 25.4319 41.6684 26.8417 41.6684 26.8417Z" fill="#0C0D5B"/>
</g>
<defs>
<clipPath id="clip0_86_2183">
<rect width="42.905" height="30" fill="white" transform="translate(13 19)"/>
</clipPath>
</defs>
</svg>
